<svg width="31" height="31" viewBox="0 0 31 31" fill="none" xmlns="http://www.w3.org/2000/svg">
<g filter="url(#filter0_d)">
<path fill-rule="evenodd" clip-rule="evenodd" d="M17.9131 2.49507C18.702 2.16823 19.5474 2 20.4013 2C21.2551 2 22.1006 2.16823 22.8894 2.49507C23.6781 2.82186 24.3947 3.30081 24.9982 3.90455C25.602 4.5081 26.0813 5.22501 26.408 6.01368C26.7349 6.80249 26.9031 7.64797 26.9031 8.50183C26.9031 9.35568 26.7349 10.2012 26.408 10.99C26.0812 11.7787 25.6022 12.4953 24.9984 13.0989C24.9983 13.099 24.9985 13.0989 24.9984 13.0989L16.1584 21.9389C15.7679 22.3295 15.1347 22.3295 14.7442 21.9389L5.90418 13.0989C4.68496 11.8797 4 10.2261 4 8.50183C4 6.77758 4.68496 5.12395 5.90418 3.90472C7.12341 2.68549 8.77704 2.00053 10.5013 2.00053C12.2255 2.00053 13.8792 2.68549 15.0984 3.90472L15.4513 4.25761L15.804 3.90488C15.8041 3.90483 15.804 3.90494 15.804 3.90488C16.4076 3.30106 17.1244 2.82189 17.9131 2.49507ZM20.4013 4C19.8102 4 19.2248 4.11647 18.6787 4.34274C18.1326 4.56902 17.6365 4.90068 17.2186 5.31877L16.1584 6.37893C15.7679 6.76946 15.1347 6.76946 14.7442 6.37893L13.6842 5.31893C12.84 4.47478 11.6951 4.00053 10.5013 4.00053C9.30747 4.00053 8.16255 4.47478 7.3184 5.31893C6.47424 6.16309 6 7.30801 6 8.50183C6 9.69564 6.47424 10.8406 7.3184 11.6847L15.4513 19.8176L23.5842 11.6847C24.0023 11.2668 24.3341 10.7705 24.5604 10.2244C24.7866 9.67828 24.9031 9.09295 24.9031 8.50183C24.9031 7.9107 24.7866 7.32537 24.5604 6.77926C24.3341 6.23316 24.0024 5.73699 23.5843 5.3191C23.1665 4.90101 22.67 4.56902 22.1239 4.34274C21.5778 4.11647 20.9924 4 20.4013 4Z" fill="black"/>
</g>
<defs>
<filter id="filter0_d" x="-1" y="0" width="32" height="32" filterUnits="userSpaceOnUse" color-interpolation-filters="sRGB">
<feFlood flood-opacity="0" result="BackgroundImageFix"/>
<feColorMatrix in="SourceAlpha" type="matrix" values="0 0 0 0 0 0 0 0 0 0 0 0 0 0 0 0 0 0 127 0"/>
<feOffset dy="4"/>
<feGaussianBlur stdDeviation="2"/>
<feColorMatrix type="matrix" values="0 0 0 0 0 0 0 0 0 0 0 0 0 0 0 0 0 0 0.25 0"/>
<feBlend mode="normal" in2="BackgroundImageFix" result="effect1_dropShadow"/>
<feBlend mode="normal" in="SourceGraphic" in2="effect1_dropShadow" result="shape"/>
</filter>
</defs>
</svg>
