<svg width="85" height="184" viewBox="0 0 85 184" fill="none" xmlns="http://www.w3.org/2000/svg">
<path d="M1.95821 149.734L21.2367 160.877V105.885L50.8275 79.3165V66.5031L1.95821 22.1682V49.0142L29.4007 72.9114L1.95821 96.807V149.734ZM23.1949 164.269L0 150.862V95.9161L26.4197 72.9114L0 49.9051V17.7488L52.7857 65.6352V80.1891L23.1949 106.759V164.269Z" fill="white"/>
<path fill-rule="evenodd" clip-rule="evenodd" d="M73.0454 85.6585V79.7532V66.0688V60.6848V56.1382L7.96914 0.000366211L0.978168 6.27367V19.9581L22.0446 39.0694L22.2164 39.5463L51.8057 66.3908V79.7532H51.8072L33.3124 96.3604L22.2164 106.759V162.574L43.4515 150.301V115.484L73.0454 89.7129V85.6585Z" fill="white"/>
<path fill-rule="evenodd" clip-rule="evenodd" d="M63.0915 129.133V154.945V183.912L84.3282 165.42V140.505V110.641L63.0915 129.133Z" fill="white"/>
</svg>
