<svg width="35" height="26" viewBox="0 0 35 26" fill="none" xmlns="http://www.w3.org/2000/svg">
<g clip-path="url(#clip0)">
<path d="M32.9167 11.3742H2.08333C1.955 11.3742 1.83333 11.4318 1.75417 11.5302C1.675 11.6285 1.6475 11.7568 1.67833 11.8787L5.01667 24.8925C5.09667 25.1663 5.3425 25.9991 6.25 25.9991H28.75C29.6608 25.9991 29.9042 25.1655 29.9875 24.8787L33.3208 11.8787C33.3517 11.7577 33.3242 11.6285 33.245 11.5302C33.1667 11.4318 33.045 11.3742 32.9167 11.3742ZM29.1833 24.6691C29.0317 25.1867 28.875 25.1866 28.75 25.1866H6.25C6.12583 25.1866 5.97 25.1866 5.82083 24.6821L2.6175 12.1867H32.3833L29.1833 24.6691ZM15.4167 22.7492C15.6467 22.7492 15.8333 22.5672 15.8333 22.3429V15.0304C15.8333 14.8062 15.6467 14.6242 15.4167 14.6242C15.1867 14.6242 15 14.8062 15 15.0304V22.3429C15 22.5672 15.1867 22.7492 15.4167 22.7492ZM9.5825 22.7492C9.59833 22.7492 9.61333 22.7483 9.63 22.7467C9.85833 22.7215 10.0233 22.5208 9.9975 22.2982L9.16417 14.9857C9.13917 14.7623 8.93917 14.6047 8.70333 14.6266C8.475 14.6518 8.31 14.8525 8.33583 15.0751L9.16917 22.3876C9.1925 22.5956 9.37333 22.7492 9.5825 22.7492ZM20.4167 22.7492C20.6467 22.7492 20.8333 22.5672 20.8333 22.3429V15.0304C20.8333 14.8062 20.6467 14.6242 20.4167 14.6242C20.1867 14.6242 20 14.8062 20 15.0304V22.3429C20 22.5672 20.1867 22.7492 20.4167 22.7492ZM25.37 22.7467C25.3867 22.7483 25.4017 22.7492 25.4175 22.7492C25.6267 22.7492 25.8075 22.5956 25.8308 22.3876L26.6642 15.0751C26.6892 14.8525 26.525 14.6518 26.2967 14.6266C26.0575 14.6038 25.8617 14.7623 25.8358 14.9857L25.0025 22.2982C24.9775 22.5208 25.1417 22.7215 25.37 22.7467ZM28.75 9.74915C28.8467 9.74915 28.9433 9.71665 29.0225 9.65003C29.1967 9.50296 29.215 9.24703 29.065 9.07721L21.1483 0.139714C20.9975 -0.0309105 20.735 -0.047973 20.5608 0.0974644C20.3867 0.244527 20.3683 0.500464 20.5183 0.670277L28.435 9.60778C28.5175 9.70121 28.6333 9.74915 28.75 9.74915ZM14.8467 0.0909644C14.6692 -0.049598 14.4067 -0.0260355 14.2608 0.148652L6.76083 9.08615C6.615 9.25921 6.64083 9.51515 6.81917 9.65815C6.89667 9.71909 6.99083 9.74915 7.08333 9.74915C7.20417 9.74915 7.32333 9.69878 7.40583 9.59965L14.9058 0.662152C15.0517 0.489089 15.025 0.233152 14.8467 0.0909644ZM34.5833 8.12415H31.25C31.02 8.12415 30.8333 8.30615 30.8333 8.5304C30.8333 8.75465 31.02 8.93665 31.25 8.93665H34.5833C34.8133 8.93665 35 8.75465 35 8.5304C35 8.30615 34.8133 8.12415 34.5833 8.12415ZM11.25 8.93665H24.5833C24.8133 8.93665 25 8.75465 25 8.5304C25 8.30615 24.8133 8.12415 24.5833 8.12415H11.25C11.02 8.12415 10.8333 8.30615 10.8333 8.5304C10.8333 8.75465 11.02 8.93665 11.25 8.93665ZM0.416667 8.93665H4.58333C4.81333 8.93665 5 8.75465 5 8.5304C5 8.30615 4.81333 8.12415 4.58333 8.12415H0.416667C0.186667 8.12415 0 8.30615 0 8.5304C0 8.75465 0.186667 8.93665 0.416667 8.93665Z" fill="#141414"/>
</g>
<defs>
<clipPath id="clip0">
<rect width="35" height="26" fill="white"/>
</clipPath>
</defs>
</svg>
