<svg width="33" height="28" viewBox="0 0 33 28" fill="none" xmlns="http://www.w3.org/2000/svg">
<path d="M29.6096 3.29859C28.8521 2.56987 27.9528 1.9918 26.9629 1.5974C25.9731 1.203 24.9121 1 23.8406 1C22.7691 1 21.7082 1.203 20.7183 1.5974C19.7284 1.9918 18.8291 2.56987 18.0716 3.29859L16.4996 4.81023L14.9276 3.29859C13.3976 1.82732 11.3224 1.00076 9.15859 1.00076C6.9948 1.00076 4.91963 1.82732 3.3896 3.29859C1.85956 4.76986 1 6.76534 1 8.84603C1 10.9267 1.85956 12.9222 3.3896 14.3935L4.96161 15.9051L16.4996 27L28.0376 15.9051L29.6096 14.3935C30.3674 13.6651 30.9686 12.8003 31.3787 11.8484C31.7889 10.8966 32 9.87635 32 8.84603C32 7.81571 31.7889 6.79548 31.3787 5.84363C30.9686 4.89178 30.3674 4.02697 29.6096 3.29859Z" stroke="black" stroke-linecap="round" stroke-linejoin="round"/>
</svg>
