<svg width="24" height="20" viewBox="0 0 24 20" fill="none" xmlns="http://www.w3.org/2000/svg">
<path d="M21.3036 2.59133C20.766 2.08683 20.1278 1.68663 19.4253 1.41358C18.7228 1.14054 17.9699 1 17.2095 1C16.4491 1 15.6961 1.14054 14.9936 1.41358C14.2912 1.68663 13.6529 2.08683 13.1153 2.59133L11.9997 3.63785L10.8841 2.59133C9.79827 1.57276 8.32556 1.00053 6.78997 1.00053C5.25437 1.00053 3.78167 1.57276 2.69584 2.59133C1.61001 3.6099 1 4.99139 1 6.43187C1 7.87235 1.61001 9.25383 2.69584 10.2724L3.81147 11.3189L11.9997 19L20.188 11.3189L21.3036 10.2724C21.8414 9.76814 22.268 9.16942 22.5591 8.51045C22.8502 7.85148 23 7.14517 23 6.43187C23 5.71857 22.8502 5.01225 22.5591 4.35328C22.268 3.69431 21.8414 3.09559 21.3036 2.59133Z" stroke="white" stroke-linecap="round" stroke-linejoin="round"/>
</svg>
