<svg width="18" height="15" viewBox="0 0 18 15" fill="none" xmlns="http://www.w3.org/2000/svg">
<path d="M17.6823 2.29543L11.9268 0.0195073C11.8338 -0.00666518 11.7353 -0.00666518 11.6423 0.0195073C9.90127 0.325805 8.12017 0.325805 6.37917 0.0195073H6.28073C6.21222 0.00471063 6.14133 0.00471063 6.07282 0.0195073L0.328263 2.29543C0.213913 2.34354 0.119788 2.42983 0.0619257 2.53956C0.00406328 2.6493 -0.013998 2.7757 0.0109021 2.89723L0.755018 6.30022C0.769404 6.36752 0.797092 6.43126 0.836563 6.48765C0.876033 6.54403 0.926439 6.59191 0.984758 6.62846C1.09782 6.70227 1.23501 6.72971 1.36777 6.70507L3.55617 6.24549V14.0691C3.55468 14.1384 3.56724 14.2074 3.5931 14.2718C3.61897 14.3362 3.65757 14.3947 3.70664 14.4438C3.75571 14.4928 3.81421 14.5315 3.87861 14.5573C3.94301 14.5832 4.01199 14.5957 4.08137 14.5943H13.9292C14.0685 14.5943 14.2021 14.5389 14.3006 14.4404C14.3991 14.342 14.4544 14.2084 14.4544 14.0691V6.24549L16.6428 6.70507C16.7083 6.72105 16.7764 6.7234 16.8429 6.71198C16.9093 6.70056 16.9728 6.67561 17.0292 6.63868C17.0856 6.60175 17.1339 6.55364 17.1709 6.4973C17.208 6.44096 17.233 6.37761 17.2446 6.31117L17.9887 2.88631C18.0137 2.76759 17.9969 2.64387 17.941 2.53616C17.8852 2.42845 17.7938 2.34338 17.6823 2.29543ZM10.57 2.05471C10.3025 2.33338 9.96602 2.53629 9.59472 2.64281C9.22342 2.74934 8.83052 2.75568 8.45597 2.66121C8.08142 2.56674 7.73857 2.37485 7.46221 2.10496C7.18586 1.83508 6.98585 1.49683 6.88252 1.12463C8.29524 1.31063 9.72627 1.31063 11.139 1.12463C11.0277 1.47883 10.8281 1.7989 10.559 2.05471H10.57ZM4.55187 5.50144C4.52058 5.36643 4.4382 5.2488 4.32206 5.17319C4.209 5.09938 4.07187 5.07194 3.93912 5.09659L1.63037 5.57804L1.09422 3.09421L5.79927 1.23406C5.93403 1.82355 6.23384 2.3625 6.66367 2.78784C7.27728 3.3893 8.1023 3.7262 8.96153 3.7262C9.82077 3.7262 10.6457 3.3893 11.2593 2.78784C11.7198 2.35926 12.0498 1.80925 12.2113 1.20123L16.9163 3.06139L16.3802 5.54521L14.1261 5.07472H13.962C13.8246 5.07758 13.6938 5.13417 13.5977 5.23236C13.5015 5.33055 13.4477 5.46249 13.4477 5.59991V13.5438H4.55187V5.49052V5.50144Z" fill="black"/>
</svg>
