<svg width="43" height="48" viewBox="0 0 43 48" fill="none" xmlns="http://www.w3.org/2000/svg">
<path fillRule="evenodd" clipRule="evenodd" d="M11.731 37.3231C12.684 37.8246 13.7454 38.0864 14.8229 38.086C18.412 38.086 21.3419 35.2387 21.4742 31.69L21.4874 0H29.4151C29.4158 0.673085 29.4786 1.34468 29.6025 2.00632H23.7978V2.00742H29.6025H31.7266C31.7255 4.65963 32.6894 7.22216 34.4394 9.21918C34.4401 9.22003 34.4408 9.22088 34.4416 9.22173C36.2268 10.3848 38.3134 11.0032 40.4457 11.0012V12.7622C41.192 12.9216 41.9636 13.0065 42.7573 13.0065V20.9152C38.7992 20.9198 34.9401 19.6821 31.7266 17.3775V33.4468C31.7266 41.4709 25.1801 48 17.1334 48C15.1295 48.0005 13.1471 47.5882 11.3104 46.7889C9.47508 45.9903 7.8248 44.8224 6.46282 43.3584C6.46182 43.3577 6.46084 43.357 6.45984 43.3563C2.69661 40.7212 0.229675 36.3633 0.229675 31.4404C0.229675 23.4151 6.7762 16.885 14.8229 16.885C15.4809 16.8881 16.1379 16.9359 16.7894 17.0279V18.9001C16.7894 18.9001 16.7894 18.9001 16.7894 18.9001L16.7894 25.1005C16.7894 25.1005 16.7894 25.1005 16.7894 25.1005L16.7894 18.9001C16.8352 18.8992 16.8808 18.8976 16.9265 18.8961C16.9951 18.8937 17.0638 18.8913 17.1333 18.8913C17.7913 18.8944 18.4483 18.9422 19.0998 19.0342V27.1068C18.4781 26.9122 17.8201 26.7989 17.1333 26.7989C15.3663 26.801 13.6721 27.5021 12.4227 28.7484C11.1733 29.9947 10.4706 31.6844 10.4689 33.4467C10.469 34.8387 10.9101 36.1951 11.7292 37.3222C11.7298 37.3225 11.7304 37.3228 11.731 37.3231ZM20.2402 39.3245C22.281 38.2447 23.694 36.1357 23.7857 33.6952V33.6963C23.694 36.136 22.281 38.2448 20.2402 39.3245ZM14.8235 24.7926C15.2315 24.7927 15.6298 24.8324 16.0166 24.9058C15.6238 24.8319 15.2244 24.7939 14.8235 24.7926ZM10.1127 26.7417C10.1127 26.7417 10.1127 26.7416 10.1127 26.7417ZM3.50269 38.6397C4.17996 40.3996 5.1907 41.9961 6.45663 43.3529C5.16494 41.9743 4.16752 40.371 3.50269 38.6397ZM14.823 45.9937C14.8229 45.9937 14.823 45.9937 14.823 45.9937ZM29.4151 31.4393V15.3701C29.4151 15.3701 29.4151 15.3701 29.4151 15.3701V31.4393Z" fill="#141414"/>
</svg>
